<?xml version="1.0" encoding="UTF-8"?>
<svg version="1.1" viewBox="0 0 2048 553" width="1280" height="1280" xmlns="http://www.w3.org/2000/svg">
<path transform="translate(661,120)" d="m0 0 2 1v41l19-12 21-12 21-9 16-4 7-1h15l19 3 16 6 12 7 13 11 10 12 9 15 7 17 5 19 2 13 1 21-2 25-5 23-7 19-8 16-10 15-11 12-9 9-13 9-16 8-15 5-16 3-18 1-14-2-18-6-19-10-11-8-1 113h35v10l-1 1h-131v-11h35l-1-99v-32l1-119 11-9 14-12 26-22 10-8h1l1 174 14 10 14 7 15 4h14l14-3 16-8 11-9 10-13 8-16 6-18 3-15 1-8v-34l-4-22-5-16-8-17-8-11-8-9-14-9-9-4-16-3h-11l-16 3-16 6-14 8-10 9-11 9-14 12-11 9-14 12-11 9-14 12-13 11-11 9-15 13-11 9-7 6-1 4v32l1 19 4 10 6 5 8 1 9-3 5-4 4-8 3-12 2-24h8v24l-3 15-5 12-6 9-8 7-11 5-9 2h-21l-13-4-11-7-9-11-5-11-4-17-11 14-9 9-16 12-16 8-15 5-12 2h-26l-15-3-12-5-11-7-7-7-6-10-3-9-1-5v-17l3-13 7-13 11-12 11-8 19-9 19-7 44-12 22-8 11-6 6-5 4-7 1-4v-23l-2-17-5-16-5-9-6-7-10-6-11-4-13-2h-12l-13 2-11 4-9 6-6 7-3 7-1 13 2 9 5 8 10 5 3 1-1 8-5 8-7 6-9 4-5 1h-12l-11-4-6-5-6-12-1-5v-13l3-11 5-10 8-10 10-9 14-9 14-7 21-6 12-2 12-1h19l19 2 19 5 16 8 9 7 9 9 8 14 4 10 4 20v82l13-10 13-11 10-8 44-36 3-2 1-74h-35v-11l36-1 32-3zm-200 124-11 8-12 6-37 13-17 9-9 7-7 8-4 9-2 9v17l3 12 5 9 7 6 9 4 5 1h19l15-4 13-7 11-9 9-10 4-6v-82z" fill="#0028A0"/>
<path transform="translate(1843,125)" d="m0 0 24 1 18 3 15 5 13 7 11 9 8 10 8 16 4 14 2 16 1 143 2 8 5 8 7 3 10-1 7-4 5-8 3-11 1-8 1-19h9v16l-2 17-5 16-6 9-4 5-9 6-10 4-18 2-15-2-12-5-10-9-6-8-5-11-2-9v-7l-5 5-13 15-11 9-15 10-14 6-14 4-22 2-15-1-16-4-16-8-10-9-6-10-3-8-2-12 1-15 4-13 7-12 7-8 11-8 15-8 23-9 44-12 20-7 16-8 7-7 3-7v-31l-3-17-5-13-6-9-8-7-13-6-9-2h-27l-12 3-11 6-5 5-5 7-2 6v15l3 8 6 7 11 5-2 9-7 9-10 6-8 2h-14l-10-4-7-7-4-8-2-14 2-13 4-10 8-11 10-10 15-10 16-8 21-6 14-2zm46 120-8 7-14 7-20 7-19 7-17 9-10 8-6 9-3 8-2 13 1 15 4 12 7 9 12 6 4 1h22l14-4 13-7 12-11 9-10 2-3v-83z" fill="#0028A0"/>
<path transform="translate(1296,125)" d="m0 0 24 1 17 3 18 6 12 7 12 11 8 11 7 16 4 20 1 129 1 23 4 10 6 5 3 1h7l8-3 6-7 4-11 2-19 1-11h8v24l-3 15-5 13-7 9-7 6-10 5-9 2-12 1-16-2-9-4-9-6-7-8-7-14-3-14v-3l-4 4-8 10-10 10-15 11-17 9-13 4-11 2h-30l-17-4-14-7-10-9-6-8-4-9-2-10v-16l3-12 6-12 8-10 9-8 12-7 24-10 23-7 30-8 21-8 13-7 6-7 3-8v-24l-2-16-5-16-6-10-4-5-11-7-11-4-6-1h-26l-15 4-11 7-5 6-4 9-1 12 2 9 5 8 7 4 6 3-1 8-6 8-7 6-12 4h-14l-9-3-7-6-5-9-2-8v-13l4-13 6-11 9-10 13-10 14-8 12-5 13-4 18-3zm46 120-10 8-15 7-37 13-15 8-9 7-7 8-4 9-2 9v17l3 12 4 8 9 8 12 4h21l12-3 14-7 11-9 7-7 7-10v-82z" fill="#0028A0"/>
<path transform="translate(157,77)" d="m0 0h29l21 3 19 5 19 8 12 8 7 6 8 11 5 12 1 5v17l-4 11-4 6-8 7-12 4h-11l-11-4-7-7-4-9v-13l7-18 1-4v-10l-4-10-9-8-13-6-16-3h-14l-17 3-13 5-11 6-11 9-8 9-8 13-7 15-5 16-3 15-2 23v11l2 24 5 25 8 24 11 23 8 12 9 11 11 11 13 9 14 7 15 4 7 1h17l15-3 13-5 14-8 11-9 8-9 8-14 5-13 9 2 1 2-6 17-7 13-8 11-9 10-9 8-14 9-15 7-15 5-21 4-11 1h-18l-18-2-17-4-16-6-14-7-13-9-12-11-10-10-11-16-8-14-8-20-5-19-3-20v-37l4-24 6-20 9-20 10-16 11-14 12-12 15-11 16-9 15-6 18-5z" fill="#0028A0"/>
<path transform="translate(1541,20)" d="m0 0h5l1 1v359h35v10h-133v-10h35v-341h-35v-10l31-1 28-2 25-4z" fill="#0028A0"/>
<path transform="translate(1679,20)" d="m0 0h5l1 1v359h35v10h-133v-9l1-1h34v-340l-35-1v-9l1-1 47-2 25-3z" fill="#0028A0"/>
<path transform="translate(1072,51)" d="m0 0h11v81h68v10l-1 1h-67l1 195 3 17 6 12 1 3 4 2 9 4 5 1h12l12-3 10-5 10-8 7-7 4-5 4 2 3 2-1 5-8 11-9 9-14 9-11 5-20 4h-20l-19-3-14-5-11-7-7-6-7-10-5-10-4-13-3-18v-181h-31l-1-1v-10l19-1 14-3 12-5 10-7 9-9 8-13 6-17 4-19z" fill="#0028A0"/>
<path transform="translate(957,123)" d="m0 0 3 1v256h35v10h-132v-10h35l-1-28v-165l1-44h-35v-11l34-1 26-2 24-4z" fill="#0028A0"/>
<path transform="translate(925,37)" d="m0 0h9l11 3 9 6 6 9 3 10v12l-4 12-9 10-12 5h-17l-11-4-7-6-5-8-2-7v-16l4-11 8-9 11-5z" fill="#0028A0"/>
<path transform="translate(1337,452)" d="m0 0h4l1 9 5-7 4-2h9l3 3 2 6 7-8 2-1h9l4 4 1 4 1 26 3 2h-16l3-2v-30l-7 1-5 5-1 2-1 20-1 2 5 1v1h-16l3-2v-28l-2-2-6 1-4 5-2 4-1 20 5 1v1h-16l3-2 1-31h-5l4-2z" fill="#32333B"/>
<path transform="translate(1935,452)" d="m0 0h4v7l-1 3h2l2-5 6-5h10l3 3 2 5 6-7 2-1h10l4 5 1 29 4 2h-16l3-2v-27l-2-3-6 1-5 6-1 3-1 20 5 1v1h-17l4-2v-26l-2-4-6 1-5 6-1 2v21l3 2h-16l4-1v-32l-4-1z" fill="#2A2C35"/>
<path transform="translate(1779,437)" d="m0 0h11l6 3 3 4 1 5-5 5-5-3 3-4-1-5-5-2-9 1-4 3v6l8 6 13 7 5 6 1 2v8l-4 6-8 4h-14l-7-4-3-6 1-5 3-3 5 1v4l-1 1v5l3 3 3 1h9l5-3 1-2v-6l-5-6-16-9-5-6-1-6 3-6 6-4z" fill="#272B3A"/>
<path transform="translate(1304,437)" d="m0 0h11l6 3 3 4v7l-5 3-4-2 2-4v-7l-11-1-7 2-1 6 1 4 4 2 15 8 7 8 1 7-4 8-8 4h-14l-6-3-4-6 1-7 3-2 4 1 2 3-3 3 2 6 4 2h10l5-3 1-7-4-6-17-10-5-5-1-2v-7l6-7z" fill="#2C2E39"/>
<path transform="translate(1502,438)" d="m0 0h37v14l-2-1-3-10h-18v22l13-1 2-8h2v18h-2l-2-6-13-1v21l7 1v1h-21l2-2 4-1v-44l-6-1z" fill="#2F3039"/>
<path transform="translate(1646,452)" d="m0 0h4l1 9 7-8 2-1h10l4 4 1 3 1 27 3 2h-16l3-2h2l-1-24-2-5-5-1-5 3-3 5-1 4-1 18 5 1v1h-16l3-2 1-31h-5l4-2z" fill="#2C2D34"/>
<path transform="translate(1567,452)" d="m0 0h4l1 8 5-6 4-2h10l4 5 1 16-1 13 5 1v1h-16l3-2v-27l-3-3-6 1-5 6-1 2-1 21 5 1v1h-17l4-2 1-31h-5l3-2z" fill="#272B39"/>
<path transform="translate(1403,452)" d="m0 0h12l5 4 2 5 1 25 3 1 1-7 2-1-2 9-1 1h-8l-4-5-5 4-2 1h-10l-4-5 1-7 5-4 14-5v-10l-3-3h-7l-2 2-1 5 3 1-3 4-5-1-1-5 3-5zm9 18-8 4-3 3v6l3 3 7-1 3-3v-12z" fill="#242B42"/>
<path transform="translate(1611,452)" d="m0 0h11l5 3 2 4 1 8v20l4 1-1 1h-7l-3-3-1-2-5 4-2 1h-10l-4-4v-6l4-5 15-6h2l-1-9-4-4h-8v7 4l-5 1-2-3 1-6 5-5zm9 18-10 5-1 1v7l3 3 6-1 4-3v-12z" fill="#272A38"/>
<path transform="translate(1905,452)" d="m0 0h12l6 5 2 6v5l-1 1h-23l3 12 6 4h7l4-2 3-8h1v6l-4 6-4 2h-13l-6-4-4-6-1-4v-8l3-8 7-6zm4 2-6 5-1 7h16v-7l-2-4z" fill="#262C41"/>
<path transform="translate(1727,452)" d="m0 0h12l5 4 2 4v9h-23l2 11 4 4 9 1 5-3 3-7 1 4-3 6-3 3-3 1h-12l-5-3-5-6-1-4v-11l4-8 5-4zm3 2-5 5-2 7h17l-1-9-3-3z" fill="#242A40"/>
<path transform="translate(1801,453)" d="m0 0h16v2h-4l9 21 8-21h-4v-2h10l-4 5-12 31-5 10-6 5h-6l-4-4 1-7 3-1 4 1-1 8 4-1 4-5 3-6-1-6-11-26z" fill="#2B2E39"/>
<path transform="translate(1844,452)" d="m0 0h12l5 3 1 7-3 3-5-2v-2h2l-1-5-2-1h-7l-3 2 1 6 15 8 4 5v6l-4 5-4 2h-13l-5-3-1-2v-7l5-2 3 3-2 2 1 5 2 1h8l4-3-1-5-16-10-3-3v-7l5-5z" fill="#282C3A"/>
<path transform="translate(1693,452)" d="m0 0h12l5 4 1 7-3 3-4-1v-4l1-3-2-3h-7l-5 5-1 3v15l3 5 4 2 9-1 3-3 2-5 1 4-3 5-5 4h-13l-7-5-3-6v-14l5-8z" fill="#262A3A"/>
<path transform="translate(1471,441)" d="m0 0h1v12h13v2h-13l1 27 2 3h5l2-3 1-5h2l-2 9-4 3h-9l-5-6-1-6v-22h-4v-2l7-4z" fill="#2B3144"/>
<path transform="translate(1438,452)" d="m0 0h3l1 8 4-6 2-2h8l3 3v6l-3 3-5-1 1-4 1-5-6 1-2 5-3 9-1 17 7 1v1h-18l4-1v-32l-4-1z" fill="#2A2B31"/>
<path transform="translate(1876,441)" d="m0 0 2 1v10l12 1v2l-12 1v20l2 8 5 1 2-1 2-7h1v6l-3 5-2 1h-9l-5-5-1-4v-25h-4v-2l5-3h2z" fill="#282C39"/>
<path transform="translate(1935,452)" d="m0 0h4v7l-1 3h2l2-5 4-4 2 1v2l-6 5-2 4v21l3 2h-16l4-1v-32l-4-1z" fill="#232A42"/>
<path transform="translate(1374,452)" d="m0 0h9l4 4 1 4 1 26 3 2h-16l3-2v-30l-8 1 1-4z" fill="#262B3B"/>
<path transform="translate(1551,451)" d="m0 0 2 1 1 34 3 2h-16l3-2 1-31-4-1z" fill="#212A46"/>
<path transform="translate(1660,452)" d="m0 0h10l4 4 1 3 1 27 3 2h-16l3-2h2l-1-24-2-5-6-2z" fill="#282933"/>
<path transform="translate(1581,452)" d="m0 0h10l4 5 1 16-1 13 5 1v1h-16l3-2v-27l-3-3-4-2z" fill="#2A2B31"/>
<path transform="translate(1971,452)" d="m0 0h10l4 5 1 29 4 2h-16l3-2v-27l-2-3-5-1z" fill="#2A2A2F"/>
<path transform="translate(1337,452)" d="m0 0h4l1 9 1 3-1 2-1 20 5 1v1h-16l3-2 1-31h-5l4-2z" fill="#292930"/>
<path transform="translate(1618,469)" d="m0 0h2v2l-10 5v9h6l6-2-5 5-2 1h-10l-4-4v-6l4-5z" fill="#272C3D"/>
<path transform="translate(1404,471)" d="m0 0h5l-5 4-2 2v6l2 2 7-1h3l-5 4-2 1h-10l-4-5 1-7 5-4z" fill="#292D3D"/>
<path transform="translate(1769,471)" d="m0 0 5 1v4l-1 1v5l3 3 3 1h11l-1 3h-14l-7-4-3-6 1-5z" fill="#222943"/>
<path transform="translate(1294,471)" d="m0 0 4 1 2 3-3 3 2 6 4 2h12l-1 3h-14l-6-3-4-6 1-7z" fill="#272B3B"/>
<path transform="translate(1779,437)" d="m0 0h11l6 3 3 4 1 5-5 5-5-3 3-4-1-5-5-2-10 1z" fill="#2A2E3B"/>
<path transform="translate(1816,491)" d="m0 0h2l-1 5-6 7-2 1h-6l-4-4 1-7 3-1 4 1-1 8 4-1 4-5z" fill="#282F47"/>
<path transform="translate(1502,438)" d="m0 0h37v14l-2-1-3-10h-18v-1l-14-1z" fill="#142A6F"/>
<path transform="translate(1312,437)" d="m0 0 6 1 5 4 1 2v7l-5 3-4-2 2-4v-7l-6-1z" fill="#313648"/>
<path transform="translate(1448,452)" d="m0 0h8l3 3v6l-3 3-5-1 1-4 1-5-6 1v2l-3-1z" fill="#323643"/>
<path transform="translate(1839,475)" d="m0 0 5 2-2 3 1 5 7 2-1 2h-7l-5-3-1-2v-7z" fill="#292E41"/>
<path transform="translate(1847,452)" d="m0 0h9l5 3 1 7-3 3-5-2v-2h2l-1-5-9-2z" fill="#2A2E3F"/>
<path transform="translate(1611,452)" d="m0 0 2 1-4 2v7 4l-5 1-2-3 1-6 5-5z" fill="#262C41"/>
<path transform="translate(1401,453)" d="m0 0m-2 1 3 1-2 7 3 1-3 4-5-1-1-5 3-5z" fill="#2A2F42"/>
<path transform="translate(1546,437)" d="m0 0 5 1 1 1v5l-1 1h-6l-2-4z" fill="#272935"/>
<path transform="translate(1826,453)" d="m0 0h10l-4 5-5 13-2-1 3-10 2-5h-4z" fill="#222D51"/>
<path transform="translate(1779,437)" d="m0 0h11l-2 2-11 2z" fill="#2F395A"/>
<path transform="translate(560,377)" d="m0 0h2v9l-2-4z" fill="#0028A0"/>
<path transform="translate(1635,479)" d="m0 0h1v7l-2 1z" fill="#13286C"/>
<path transform="translate(1444,389)" d="m0 0" fill="#0028A0"/>
<path transform="translate(526,306)" d="m0 0" fill="#0028A0"/>
<path transform="translate(525,305)" d="m0 0" fill="#0028A0"/>
<path transform="translate(524,304)" d="m0 0" fill="#0028A0"/>
<path transform="translate(523,303)" d="m0 0" fill="#0028A0"/>
</svg>
