<?xml version="1.0" encoding="utf-8"?>
<!-- Generator: Adobe Illustrator 18.1.1, SVG Export Plug-In . SVG Version: 6.00 Build 0)  -->
<svg version="1.1" id="Layer_1" xmlns="http://www.w3.org/2000/svg" xmlns:xlink="http://www.w3.org/1999/xlink" x="0px" y="0px"
	 viewBox="-194 304 24 24" enable-background="new -194 304 24 24" xml:space="preserve">
<path fill="#00145E" d="M-182,326.8c-5.9,0-10.8-4.8-10.8-10.8s4.8-10.8,10.8-10.8s10.8,4.8,10.8,10.8S-176.1,326.8-182,326.8z
	 M-182,306.8c-5.1,0-9.3,4.1-9.3,9.3s4.1,9.3,9.3,9.3s9.3-4.1,9.3-9.3S-176.9,306.8-182,306.8z"/>
<path fill="#00145E" d="M-178,316.8h-8c-0.4,0-0.8-0.3-0.8-0.8s0.3-0.8,0.8-0.8h8c0.4,0,0.8,0.3,0.8,0.8S-177.6,316.8-178,316.8z"/>
<path fill="#00145E" d="M-182,320.8c-0.4,0-0.8-0.3-0.8-0.8v-8c0-0.4,0.3-0.8,0.8-0.8s0.8,0.3,0.8,0.8v8
	C-181.3,320.4-181.6,320.8-182,320.8z"/>
</svg>
