<?xml version="1.0" encoding="utf-8"?>
<!-- Generator: Adobe Illustrator 18.1.1, SVG Export Plug-In . SVG Version: 6.00 Build 0)  -->
<svg version="1.1" id="Layer_1" xmlns="http://www.w3.org/2000/svg" xmlns:xlink="http://www.w3.org/1999/xlink" x="0px" y="0px"
	 viewBox="-529 531 20 20" enable-background="new -529 531 20 20" xml:space="preserve">
<path fill="#FFFFFF" d="M-512,536h-1v-5h-12v5h-1c-1.7,0-3,1.3-3,3v7c0,1.1,0.9,2,2,2h2v3h12v-3h2c1.1,0,2-0.9,2-2v-7
	C-509,537.3-510.3,536-512,536z M-523,533h8v3h-8V533z M-515,549h-8v-4h8V549z M-511,546h-2v-3h-12v3h-2v-7c0-0.6,0.4-1,1-1h14
	c0.6,0,1,0.4,1,1V546z"/>
</svg>
